<mxfile host="app.diagrams.net" agent="Mozilla/5.0 (Windows NT 10.0; Win64; x64) AppleWebKit/537.36 (KHTML, like Gecko) Chrome/131.0.0.0 Safari/537.36 Edg/131.0.0.0" version="25.0.3">
  <diagram name="Page-1" id="LWKEwxXlh0xFJYuSZQY6">
    <mxGraphModel dx="657" dy="395" grid="1" gridSize="10" guides="1" tooltips="1" connect="1" arrows="1" fold="1" page="1" pageScale="1" pageWidth="827" pageHeight="1169" math="0" shadow="0">
      <root>
        <mxCell id="0" />
        <mxCell id="1" parent="0" />
        <mxCell id="xqpeyCQ_cKsWzOM3yVpR-3" value="" style="rounded=0;whiteSpace=wrap;html=1;" parent="1" vertex="1">
          <mxGeometry x="200" y="40" width="600" height="600" as="geometry" />
        </mxCell>
        <mxCell id="xqpeyCQ_cKsWzOM3yVpR-8" style="rounded=0;orthogonalLoop=1;jettySize=auto;html=1;exitX=1;exitY=0.3333333333333333;exitDx=0;exitDy=0;exitPerimeter=0;entryX=0.5;entryY=0;entryDx=0;entryDy=0;flowAnimation=0;shadow=0;curved=1;endArrow=none;endFill=0;" parent="1" source="xqpeyCQ_cKsWzOM3yVpR-4" target="xqpeyCQ_cKsWzOM3yVpR-7" edge="1">
          <mxGeometry relative="1" as="geometry" />
        </mxCell>
        <mxCell id="xqpeyCQ_cKsWzOM3yVpR-14" style="edgeStyle=none;shape=connector;rounded=0;orthogonalLoop=1;jettySize=auto;html=1;exitX=1;exitY=0.3333333333333333;exitDx=0;exitDy=0;exitPerimeter=0;entryX=0;entryY=0.5;entryDx=0;entryDy=0;strokeColor=default;align=center;verticalAlign=middle;fontFamily=Helvetica;fontSize=11;fontColor=default;labelBackgroundColor=default;endArrow=none;endFill=0;" parent="1" source="xqpeyCQ_cKsWzOM3yVpR-4" target="xqpeyCQ_cKsWzOM3yVpR-11" edge="1">
          <mxGeometry relative="1" as="geometry" />
        </mxCell>
        <mxCell id="xqpeyCQ_cKsWzOM3yVpR-18" style="edgeStyle=none;shape=connector;rounded=0;orthogonalLoop=1;jettySize=auto;html=1;exitX=1;exitY=0.3333333333333333;exitDx=0;exitDy=0;exitPerimeter=0;entryX=0.5;entryY=1;entryDx=0;entryDy=0;strokeColor=default;align=center;verticalAlign=middle;fontFamily=Helvetica;fontSize=11;fontColor=default;labelBackgroundColor=default;endArrow=none;endFill=0;" parent="1" source="xqpeyCQ_cKsWzOM3yVpR-4" target="xqpeyCQ_cKsWzOM3yVpR-17" edge="1">
          <mxGeometry relative="1" as="geometry" />
        </mxCell>
        <mxCell id="xqpeyCQ_cKsWzOM3yVpR-4" value="Mitarbeiter" style="shape=umlActor;verticalLabelPosition=bottom;verticalAlign=top;html=1;outlineConnect=0;" parent="1" vertex="1">
          <mxGeometry x="70" y="390" width="30" height="60" as="geometry" />
        </mxCell>
        <mxCell id="xqpeyCQ_cKsWzOM3yVpR-9" style="rounded=0;orthogonalLoop=1;jettySize=auto;html=1;exitX=1;exitY=0.3333333333333333;exitDx=0;exitDy=0;exitPerimeter=0;entryX=0.5;entryY=1;entryDx=0;entryDy=0;endArrow=none;endFill=0;" parent="1" source="xqpeyCQ_cKsWzOM3yVpR-5" target="xqpeyCQ_cKsWzOM3yVpR-7" edge="1">
          <mxGeometry relative="1" as="geometry" />
        </mxCell>
        <mxCell id="xqpeyCQ_cKsWzOM3yVpR-13" style="edgeStyle=none;shape=connector;rounded=0;orthogonalLoop=1;jettySize=auto;html=1;exitX=1;exitY=0.3333333333333333;exitDx=0;exitDy=0;exitPerimeter=0;entryX=0;entryY=0.5;entryDx=0;entryDy=0;strokeColor=default;align=center;verticalAlign=middle;fontFamily=Helvetica;fontSize=11;fontColor=default;labelBackgroundColor=default;endArrow=none;endFill=0;" parent="1" source="xqpeyCQ_cKsWzOM3yVpR-5" target="xqpeyCQ_cKsWzOM3yVpR-12" edge="1">
          <mxGeometry relative="1" as="geometry" />
        </mxCell>
        <mxCell id="xqpeyCQ_cKsWzOM3yVpR-5" value="Kunde" style="shape=umlActor;verticalLabelPosition=bottom;verticalAlign=top;html=1;outlineConnect=0;" parent="1" vertex="1">
          <mxGeometry x="70" y="560" width="30" height="60" as="geometry" />
        </mxCell>
        <mxCell id="xqpeyCQ_cKsWzOM3yVpR-7" value="Mietverträge einsehen" style="ellipse;whiteSpace=wrap;html=1;fontFamily=Roboto;fontSource=https%3A%2F%2Ffonts.googleapis.com%2Fcss%3Ffamily%3DRoboto;" parent="1" vertex="1">
          <mxGeometry x="230" y="466.92" width="140" height="70" as="geometry" />
        </mxCell>
        <mxCell id="xqpeyCQ_cKsWzOM3yVpR-15" style="edgeStyle=none;shape=connector;rounded=1;orthogonalLoop=1;jettySize=auto;html=1;exitX=0.5;exitY=1;exitDx=0;exitDy=0;entryX=0.5;entryY=0;entryDx=0;entryDy=0;strokeColor=default;align=center;verticalAlign=middle;fontFamily=Roboto;fontSize=11;fontColor=default;labelBackgroundColor=default;endArrow=classic;endFill=1;fontSource=https%3A%2F%2Ffonts.googleapis.com%2Fcss%3Ffamily%3DRoboto;curved=0;" parent="1" source="xqpeyCQ_cKsWzOM3yVpR-11" target="xqpeyCQ_cKsWzOM3yVpR-12" edge="1">
          <mxGeometry relative="1" as="geometry" />
        </mxCell>
        <mxCell id="xqpeyCQ_cKsWzOM3yVpR-16" value="benötigt Bestätigung" style="edgeLabel;html=1;align=center;verticalAlign=middle;resizable=0;points=[];fontFamily=Roboto;fontSize=11;fontColor=default;labelBackgroundColor=default;fontSource=https%3A%2F%2Ffonts.googleapis.com%2Fcss%3Ffamily%3DRoboto;" parent="xqpeyCQ_cKsWzOM3yVpR-15" vertex="1" connectable="0">
          <mxGeometry x="-0.0235" relative="1" as="geometry">
            <mxPoint as="offset" />
          </mxGeometry>
        </mxCell>
        <mxCell id="xqpeyCQ_cKsWzOM3yVpR-11" value="Mietvertrag beenden" style="ellipse;whiteSpace=wrap;html=1;fontFamily=Roboto;fontSize=11;fontColor=default;labelBackgroundColor=default;fontSource=https%3A%2F%2Ffonts.googleapis.com%2Fcss%3Ffamily%3DRoboto;" parent="1" vertex="1">
          <mxGeometry x="370" y="380" width="140" height="70" as="geometry" />
        </mxCell>
        <mxCell id="xqpeyCQ_cKsWzOM3yVpR-12" value="Mietvertragbeendigung bestätigen" style="ellipse;whiteSpace=wrap;html=1;fontFamily=Roboto;fontSize=11;fontColor=default;labelBackgroundColor=default;fontSource=https%3A%2F%2Ffonts.googleapis.com%2Fcss%3Ffamily%3DRoboto;fillStyle=auto;spacing=10;" parent="1" vertex="1">
          <mxGeometry x="370" y="536.9200000000001" width="140" height="70" as="geometry" />
        </mxCell>
        <mxCell id="xqpeyCQ_cKsWzOM3yVpR-21" style="edgeStyle=none;shape=connector;rounded=0;orthogonalLoop=1;jettySize=auto;html=1;exitX=1;exitY=0;exitDx=0;exitDy=0;entryX=0;entryY=0.5;entryDx=0;entryDy=0;strokeColor=default;align=center;verticalAlign=middle;fontFamily=Helvetica;fontSize=11;fontColor=default;labelBackgroundColor=default;endArrow=classic;endFill=1;dashed=1;" parent="1" source="xqpeyCQ_cKsWzOM3yVpR-17" target="xqpeyCQ_cKsWzOM3yVpR-19" edge="1">
          <mxGeometry relative="1" as="geometry" />
        </mxCell>
        <mxCell id="xqpeyCQ_cKsWzOM3yVpR-23" value="&lt;font data-font-src=&quot;https://fonts.googleapis.com/css?family=Roboto&quot; face=&quot;Roboto&quot;&gt;&amp;lt;&amp;lt;Extends&amp;gt;&amp;gt;&lt;/font&gt;" style="edgeLabel;html=1;align=center;verticalAlign=middle;resizable=0;points=[];fontFamily=Helvetica;fontSize=11;fontColor=default;labelBackgroundColor=default;" parent="xqpeyCQ_cKsWzOM3yVpR-21" vertex="1" connectable="0">
          <mxGeometry x="0.0146" y="1" relative="1" as="geometry">
            <mxPoint as="offset" />
          </mxGeometry>
        </mxCell>
        <mxCell id="xqpeyCQ_cKsWzOM3yVpR-22" style="edgeStyle=none;shape=connector;rounded=0;orthogonalLoop=1;jettySize=auto;html=1;exitX=1;exitY=0.5;exitDx=0;exitDy=0;entryX=0;entryY=0.5;entryDx=0;entryDy=0;strokeColor=default;align=center;verticalAlign=middle;fontFamily=Roboto;fontSize=11;fontColor=default;labelBackgroundColor=default;endArrow=classic;endFill=1;dashed=1;fontSource=https%3A%2F%2Ffonts.googleapis.com%2Fcss%3Ffamily%3DRoboto;" parent="1" source="xqpeyCQ_cKsWzOM3yVpR-17" target="xqpeyCQ_cKsWzOM3yVpR-20" edge="1">
          <mxGeometry relative="1" as="geometry" />
        </mxCell>
        <mxCell id="xqpeyCQ_cKsWzOM3yVpR-24" value="&lt;font face=&quot;Roboto&quot;&gt;&amp;lt;&amp;lt;Extends&amp;gt;&amp;gt;&lt;/font&gt;" style="edgeLabel;html=1;align=center;verticalAlign=middle;resizable=0;points=[];fontFamily=Helvetica;fontSize=11;fontColor=default;labelBackgroundColor=default;" parent="xqpeyCQ_cKsWzOM3yVpR-22" vertex="1" connectable="0">
          <mxGeometry x="-0.0267" y="-2" relative="1" as="geometry">
            <mxPoint as="offset" />
          </mxGeometry>
        </mxCell>
        <mxCell id="xqpeyCQ_cKsWzOM3yVpR-17" value="Zustand des Fahrzeugs analysieren" style="ellipse;whiteSpace=wrap;html=1;fontFamily=Roboto;fontSize=11;fontColor=default;labelBackgroundColor=default;spacing=10;fontSource=https%3A%2F%2Ffonts.googleapis.com%2Fcss%3Ffamily%3DRoboto;" parent="1" vertex="1">
          <mxGeometry x="230" y="220" width="140" height="70" as="geometry" />
        </mxCell>
        <mxCell id="xqpeyCQ_cKsWzOM3yVpR-19" value="Aufbereitung starten" style="ellipse;whiteSpace=wrap;html=1;fontFamily=Roboto;fontSize=11;fontColor=default;labelBackgroundColor=default;fontSource=https%3A%2F%2Ffonts.googleapis.com%2Fcss%3Ffamily%3DRoboto;" parent="1" vertex="1">
          <mxGeometry x="460" y="100" width="140" height="70" as="geometry" />
        </mxCell>
        <mxCell id="xqpeyCQ_cKsWzOM3yVpR-20" value="Schadensmanagement starten" style="ellipse;whiteSpace=wrap;html=1;fontFamily=Roboto;fontSize=11;fontColor=default;labelBackgroundColor=default;spacing=10;fontSource=https%3A%2F%2Ffonts.googleapis.com%2Fcss%3Ffamily%3DRoboto;" parent="1" vertex="1">
          <mxGeometry x="460" y="220" width="140" height="70" as="geometry" />
        </mxCell>
        <mxCell id="xqpeyCQ_cKsWzOM3yVpR-29" style="edgeStyle=none;shape=connector;rounded=0;orthogonalLoop=1;jettySize=auto;html=1;exitX=0;exitY=0.5;exitDx=0;exitDy=0;exitPerimeter=0;strokeColor=default;align=center;verticalAlign=middle;fontFamily=Helvetica;fontSize=11;fontColor=default;labelBackgroundColor=default;endArrow=none;endFill=0;" parent="1" source="xqpeyCQ_cKsWzOM3yVpR-26" edge="1">
          <mxGeometry relative="1" as="geometry">
            <mxPoint x="390" y="200" as="targetPoint" />
          </mxGeometry>
        </mxCell>
        <mxCell id="xqpeyCQ_cKsWzOM3yVpR-26" value="&amp;lt;&amp;lt;Vorbedingung&amp;gt;&amp;gt;&lt;div&gt;{Fahrzeug sieht gut aus}&lt;/div&gt;" style="shape=note;whiteSpace=wrap;html=1;backgroundOutline=1;darkOpacity=0.05;fontFamily=Helvetica;fontSize=11;fontColor=default;labelBackgroundColor=default;spacing=2;spacingRight=32;" parent="1" vertex="1">
          <mxGeometry x="610" y="160" width="180" height="70" as="geometry" />
        </mxCell>
        <mxCell id="xqpeyCQ_cKsWzOM3yVpR-28" style="edgeStyle=none;shape=connector;rounded=0;orthogonalLoop=1;jettySize=auto;html=1;exitX=0;exitY=0.5;exitDx=0;exitDy=0;exitPerimeter=0;strokeColor=default;align=center;verticalAlign=middle;fontFamily=Helvetica;fontSize=11;fontColor=default;labelBackgroundColor=default;endArrow=none;endFill=0;" parent="1" source="xqpeyCQ_cKsWzOM3yVpR-27" edge="1">
          <mxGeometry relative="1" as="geometry">
            <mxPoint x="420" y="260" as="targetPoint" />
          </mxGeometry>
        </mxCell>
        <mxCell id="xqpeyCQ_cKsWzOM3yVpR-27" value="&amp;lt;&amp;lt;Vorbedingung&amp;gt;&amp;gt;&lt;div&gt;{Fahrzeug sieht beschädigt aus}&lt;/div&gt;" style="shape=note;whiteSpace=wrap;html=1;backgroundOutline=1;darkOpacity=0.05;fontFamily=Helvetica;fontSize=11;fontColor=default;labelBackgroundColor=default;spacing=2;spacingRight=32;" parent="1" vertex="1">
          <mxGeometry x="460" y="300" width="180" height="70" as="geometry" />
        </mxCell>
        <mxCell id="xqpeyCQ_cKsWzOM3yVpR-30" style="edgeStyle=none;shape=connector;rounded=0;orthogonalLoop=1;jettySize=auto;html=1;exitX=0.5;exitY=1;exitDx=0;exitDy=0;strokeColor=default;align=center;verticalAlign=middle;fontFamily=Helvetica;fontSize=11;fontColor=default;labelBackgroundColor=default;endArrow=none;endFill=0;" parent="1" source="xqpeyCQ_cKsWzOM3yVpR-3" target="xqpeyCQ_cKsWzOM3yVpR-3" edge="1">
          <mxGeometry relative="1" as="geometry" />
        </mxCell>
        <mxCell id="e8CXo7FogEoL-1VgWpwn-1" value="&lt;font data-font-src=&quot;https://fonts.googleapis.com/css?family=Roboto&quot; face=&quot;Roboto&quot; style=&quot;font-size: 32px;&quot;&gt;Rücknahme&lt;/font&gt;" style="text;html=1;align=center;verticalAlign=middle;whiteSpace=wrap;rounded=0;" parent="1" vertex="1">
          <mxGeometry x="380" y="50" width="240" height="30" as="geometry" />
        </mxCell>
      </root>
    </mxGraphModel>
  </diagram>
</mxfile>
